<svg version="1.1" xmlns="http://www.w3.org/2000/svg" xmlns:xlink="http://www.w3.org/1999/xlink" width="128px" height="128px" viewBox="0,0,256,256"><g fill="#00c2cb" fill-rule="nonzero" stroke="none" stroke-width="1" stroke-linecap="butt" stroke-linejoin="miter" stroke-miterlimit="10" stroke-dasharray="" stroke-dashoffset="0" font-family="none" font-weight="none" font-size="none" text-anchor="none" style="mix-blend-mode: normal"><g transform="translate(0.00043,-0.00658) scale(2,2)"><path d="M116.22,16.68c-8.22,-7.88 -21.06,-11.8 -32.78,-9.97c-8.44,1.29 -15.27,5.55 -19.37,11.97c-4,-6.53 -10.62,-10.84 -18.93,-12.22c-11.61,-1.91 -25,2.19 -33.37,10.21c-7.46951,7.15601 -11.71666,17.03596 -11.77,27.38c-0.12222,10.73001 4.11422,21.05046 11.74,28.6l47.26,47.29c1.31437,1.32519 3.10354,2.07059 4.97,2.07059c1.86646,0 3.65563,-0.7454 4.97,-2.07059l47.29,-47.3c7.63428,-7.5421 11.88159,-17.85906 11.77,-28.59c-0.05866,-10.34204 -4.30929,-20.21809 -11.78,-27.37zM112,68.4l-47.27,47.3c-0.18907,0.20195 -0.45336,0.31655 -0.73,0.31655c-0.27664,0 -0.54093,-0.1146 -0.73,-0.31655l-47.27,-47.3c-6.48543,-6.40819 -10.09389,-15.17315 -10,-24.29c0.046,-8.73178 3.63293,-17.07121 9.94,-23.11c5.89,-5.67 14.78,-9 23.29,-9c1.65481,-0.00143 3.30698,0.13235 4.94,0.4c5,0.82 11.67,3.32 15.42,10.56c0.85908,1.64761 2.55209,2.69182 4.41,2.72v0c1.81129,0.00445 3.47854,-0.98668 4.34,-2.58v0c3.89,-7.2 10.82,-9.66 15.94,-10.46c9.77,-1.52 20.9,1.84 27.7,8.37c6.33406,6.02281 9.95039,14.35988 10.02,23.1c0.09389,9.11685 -3.51457,17.88181 -10,24.29z"></path></g></g></svg>