<svg version="1.1" xmlns="http://www.w3.org/2000/svg" xmlns:xlink="http://www.w3.org/1999/xlink" width="32" height="32" viewBox="0,0,256,256"><defs><linearGradient x1="16" y1="0" x2="16" y2="32" gradientUnits="userSpaceOnUse" id="color-1"><stop offset="0" stop-color="#00d1db"></stop><stop offset="1" stop-color="#00848c"></stop></linearGradient><clipPath id="clip-1"><rect x="10.6667" y="10.6667" width="10.6667" height="10.6667" id="clip0_60_200" fill="none"></rect></clipPath></defs><g fill="none" fill-rule="nonzero" stroke="none" stroke-width="1" stroke-linecap="butt" stroke-linejoin="miter" stroke-miterlimit="10" stroke-dasharray="" stroke-dashoffset="0" font-family="none" font-weight="none" font-size="none" text-anchor="none" style="mix-blend-mode: normal"><g transform="scale(8,8)"><rect x="0" y="0" width="32" height="32" rx="8" ry="0" fill="url(#color-1)"></rect><g clip-path="url(#clip-1)"><g fill="#ffffff"><path d="M19.6567,11.6207c0.1827,-0.1844 0.4309,-0.2889 0.6904,-0.2908c0.2595,-0.002 0.5092,0.0989 0.6945,0.2806c0.1854,0.1816 0.2913,0.4293 0.2946,0.6888c0.0033,0.2595 -0.0962,0.5097 -0.2768,0.6961l-5.2267,6.534c-0.0898,0.0966 -0.1981,0.1742 -0.3186,0.2281c-0.1204,0.0539 -0.2505,0.0829 -0.3824,0.0854c-0.1319,0.0025 -0.263,-0.0216 -0.3854,-0.0709c-0.1224,-0.0493 -0.2336,-0.1228 -0.3269,-0.216l-3.4654,-3.464c-0.1841,-0.1842 -0.2875,-0.4341 -0.2875,-0.6945c0.0001,-0.2605 0.1036,-0.5103 0.2879,-0.6945c0.1842,-0.1841 0.4341,-0.2875 0.6945,-0.2875c0.2605,0.0001 0.5103,0.1036 0.6945,0.2879l2.7406,2.7413l4.5467,-5.7933c0.0083,-0.0106 0.0172,-0.0206 0.0267,-0.03z"></path></g></g></g></g></svg>