<svg version="1.1" xmlns="http://www.w3.org/2000/svg" xmlns:xlink="http://www.w3.org/1999/xlink" width="512px" height="512px" viewBox="0,0,256,256"><g fill="#9d9d9d" fill-rule="nonzero" stroke="none" stroke-width="1" stroke-linecap="butt" stroke-linejoin="miter" stroke-miterlimit="10" stroke-dasharray="" stroke-dashoffset="0" font-family="none" font-weight="none" font-size="none" text-anchor="none" style="mix-blend-mode: normal"><g transform="translate(0,-2.73042) scale(0.5,0.5)"><path d="M225.8,468.2l-2.5,-2.3l-175.2,-162.7c-30.7,-28.5 -48.1,-68.5 -48.1,-110.4v-3.3c0,-70.4 50,-130.8 119.2,-144c39.4,-7.6 79.7,1.5 111.8,24.1c9,6.4 17.4,13.8 25,22.3c4.2,-4.8 8.7,-9.2 13.5,-13.3c3.7,-3.2 7.5,-6.2 11.5,-9v0c32.1,-22.6 72.4,-31.7 111.8,-24.2c69.2,13.2 119.2,73.7 119.2,144.1v3.3c0,41.9 -17.4,81.9 -48.1,110.4l-175.2,162.7l-2.5,2.3c-8.2,7.6 -19,11.9 -30.2,11.9c-11.2,0 -22,-4.2 -30.2,-11.9zM239.1,145c-0.4,-0.3 -0.7,-0.7 -1,-1.1l-17.8,-20l-0.1,-0.1v0c-23.1,-25.9 -58,-37.7 -92,-31.2c-46.6,8.9 -80.2,49.5 -80.2,96.9v3.3c0,28.5 11.9,55.8 32.8,75.2l175.2,162.7l175.2,-162.7c20.9,-19.4 32.8,-46.7 32.8,-75.2v-3.3c0,-47.3 -33.6,-88 -80.1,-96.9c-34,-6.5 -69,5.4 -92,31.2c0,0 0,0 -0.1,0.1c-0.1,0.1 0,0 -0.1,0.1l-17.8,20c-0.3,0.4 -0.7,0.7 -1,1.1c-4.5,4.5 -10.6,7 -16.9,7c-6.3,0 -12.4,-2.5 -16.9,-7z"></path></g></g></svg>